# xmcd
#
# Track frame offsets:
#	150
#	15375
#	33600
#	56925
#	72000
#	95175
#
# Disc length: 1459 seconds
#
# Revision: 1
# Processed by: cddbd v1.5.1PL2 Copyright (c) Steve Scherf et al.
# Submitted via: audiograbber 1.83.01
#
DISCID=4f05b106
DTITLE=D'N'D - Dektetor lazi (SINGL)
DYEAR=2003
DGENRE=Pop/Funk
TTITLE0=Detektor lazi 
TTITLE1=Detektor lazi (radio edit)
TTITLE2=Detektor lazi  (extended version)
TTITLE3=Detektor lazi  (instrumental)
TTITLE4=Detektor lazi  (extended mix version)
TTITLE5=Detektor lazi (acappella)
EXTD=
EXTT0=
EXTT1=
EXTT2=
EXTT3=
EXTT4=
EXTT5=
PLAYORDER=
